<mxfile host="app.diagrams.net" modified="2021-03-02T08:20:55.572Z" agent="5.0 (Macintosh; Intel Mac OS X 11_2_0) AppleWebKit/537.36 (KHTML, like Gecko) Chrome/88.0.4324.192 Safari/537.36" etag="NFYflOLRlTgWTYmdHQ1_" version="14.4.3" type="github">
  <diagram id="C5RBs43oDa-KdzZeNtuy" name="Page-1">
    <mxGraphModel dx="1188" dy="554" grid="1" gridSize="10" guides="1" tooltips="1" connect="1" arrows="1" fold="1" page="1" pageScale="1" pageWidth="827" pageHeight="1169" math="0" shadow="0">
      <root>
        <mxCell id="WIyWlLk6GJQsqaUBKTNV-0" />
        <mxCell id="WIyWlLk6GJQsqaUBKTNV-1" parent="WIyWlLk6GJQsqaUBKTNV-0" />
        <mxCell id="mbtyohumz-VeuymdS4NC-3" value="博弈场景" style="rounded=0;" vertex="1" parent="WIyWlLk6GJQsqaUBKTNV-1">
          <mxGeometry x="60" y="200" width="80" height="170" as="geometry" />
        </mxCell>
        <mxCell id="mbtyohumz-VeuymdS4NC-4" value="博弈数据" style="shape=internalStorage;backgroundOutline=1;dx=10;dy=15;" vertex="1" parent="WIyWlLk6GJQsqaUBKTNV-1">
          <mxGeometry x="200" y="260" width="80" height="50" as="geometry" />
        </mxCell>
        <mxCell id="mbtyohumz-VeuymdS4NC-5" value="" style="endArrow=classic;exitX=1;exitY=0.5;exitDx=0;exitDy=0;entryX=0;entryY=0.5;entryDx=0;entryDy=0;" edge="1" parent="WIyWlLk6GJQsqaUBKTNV-1" source="mbtyohumz-VeuymdS4NC-3" target="mbtyohumz-VeuymdS4NC-4">
          <mxGeometry width="50" height="50" relative="1" as="geometry">
            <mxPoint x="140" y="320" as="sourcePoint" />
            <mxPoint x="190" y="270" as="targetPoint" />
          </mxGeometry>
        </mxCell>
        <mxCell id="mbtyohumz-VeuymdS4NC-6" value="数据采集" style="edgeLabel;align=center;verticalAlign=middle;resizable=0;points=[];" vertex="1" connectable="0" parent="mbtyohumz-VeuymdS4NC-5">
          <mxGeometry x="0.1" relative="1" as="geometry">
            <mxPoint x="-4.03" y="-15" as="offset" />
          </mxGeometry>
        </mxCell>
        <mxCell id="mbtyohumz-VeuymdS4NC-7" value="数据处理" style="rounded=0;" vertex="1" parent="WIyWlLk6GJQsqaUBKTNV-1">
          <mxGeometry x="310" y="267.5" width="90" height="35" as="geometry" />
        </mxCell>
        <mxCell id="mbtyohumz-VeuymdS4NC-8" value="" style="endArrow=classic;exitX=1;exitY=0.5;exitDx=0;exitDy=0;entryX=0;entryY=0.5;entryDx=0;entryDy=0;" edge="1" parent="WIyWlLk6GJQsqaUBKTNV-1" source="mbtyohumz-VeuymdS4NC-4" target="mbtyohumz-VeuymdS4NC-7">
          <mxGeometry width="50" height="50" relative="1" as="geometry">
            <mxPoint x="290" y="310" as="sourcePoint" />
            <mxPoint x="340" y="260" as="targetPoint" />
          </mxGeometry>
        </mxCell>
        <mxCell id="mbtyohumz-VeuymdS4NC-9" value="结果导出" style="rounded=0;" vertex="1" parent="WIyWlLk6GJQsqaUBKTNV-1">
          <mxGeometry x="430" y="267.5" width="90" height="35" as="geometry" />
        </mxCell>
        <mxCell id="mbtyohumz-VeuymdS4NC-10" value="" style="endArrow=classic;exitX=1;exitY=0.5;exitDx=0;exitDy=0;entryX=0;entryY=0.5;entryDx=0;entryDy=0;" edge="1" parent="WIyWlLk6GJQsqaUBKTNV-1" source="mbtyohumz-VeuymdS4NC-7" target="mbtyohumz-VeuymdS4NC-9">
          <mxGeometry width="50" height="50" relative="1" as="geometry">
            <mxPoint x="290" y="295" as="sourcePoint" />
            <mxPoint x="320" y="295" as="targetPoint" />
          </mxGeometry>
        </mxCell>
      </root>
    </mxGraphModel>
  </diagram>
</mxfile>
